<svg xmlns="http://www.w3.org/2000/svg" viewBox="0 0 24 24"><symbol id="07c23313-a638-49e4-a409-bc9dd781c2d9" viewBox="0 0 24 24"><path clip-rule="evenodd" d="M6 2h8l6 6v12a2 2 0 01-2 2H6a2 2 0 01-2-2V4a2 2 0 012-2zm7 1.5V9h5.5zM8.001 19.073c1.037 0 1.76-.597 1.86-1.54H9c-.094.5-.472.808-.996.808-.677 0-1.102-.557-1.102-1.46 0-.89.431-1.45 1.099-1.45.516 0 .914.34.996.859h.861c-.067-.946-.84-1.59-1.857-1.59C6.776 14.7 6 15.522 6 16.884c0 1.365.77 2.188 2.001 2.188zm2.35-1.277c.026.794.674 1.277 1.69 1.277 1.05 0 1.714-.518 1.714-1.339 0-.644-.369-1.007-1.215-1.19l-.513-.107c-.487-.112-.692-.258-.692-.519 0-.313.293-.521.73-.521.442 0 .756.216.785.574h.83c-.015-.765-.634-1.272-1.618-1.272-.943 0-1.617.516-1.617 1.295 0 .618.384 1.014 1.163 1.18l.55.12c.51.115.713.268.713.543 0 .31-.323.536-.794.536-.47 0-.832-.228-.873-.577zm7.641-3.023L16.572 19h-1.067l-1.421-4.228h.99l.967 3.317h.02l.967-3.316z" fill-rule="evenodd"/></symbol><use href="#07c23313-a638-49e4-a409-bc9dd781c2d9"/></svg>