<svg xmlns="http://www.w3.org/2000/svg" viewBox="0 0 24 24"><symbol id="81bbb0e1-567c-49ac-8537-9ac813921198" viewBox="0 0 24 24"><path fill-rule="evenodd" clip-rule="evenodd" d="M3.5 22c-.433 0-.792-.142-1.075-.425C2.142 21.292 2 20.933 2 20.5v-15c0-.433.142-.792.425-1.075C2.708 4.142 3.067 4 3.5 4h5.05a2.416 2.416 0 0 1 .862-1.438A2.434 2.434 0 0 1 11 2c.6 0 1.13.188 1.588.563.458.374.745.854.862 1.437h5.05c.433 0 .792.142 1.075.425.283.283.425.642.425 1.075V12h-1.5V5.5H17v2.25H5V5.5H3.5v15h6V22h-6Zm8.213-16.788A.968.968 0 0 1 11 5.5a.968.968 0 0 1-.713-.287A.967.967 0 0 1 10 4.5c0-.283.096-.52.287-.712A.968.968 0 0 1 11 3.5c.283 0 .52.096.713.288.191.191.287.429.287.712s-.096.52-.287.713Z"/><path d="M14.44 20.683 11.68 18l2.76-2.683-.84-.817L10 18l3.6 3.5.84-.817Zm3.12 0L20.32 18l-2.76-2.683.84-.817L22 18l-3.6 3.5-.84-.817Z"/></symbol><use href="#81bbb0e1-567c-49ac-8537-9ac813921198"/></svg>