<svg xmlns="http://www.w3.org/2000/svg" viewBox="0 0 24 24"><symbol id="04f3b07a-5b49-4c2e-bb9c-cccb78d49a1a" viewBox="0 0 24 24"><path clip-rule="evenodd" d="M6 2h8l6 6v12a2 2 0 01-2 2H6a2 2 0 01-2-2V4a2 2 0 012-2zm7 1.5V9h5.5zm-1.038 11.2c-1.254 0-2.04.84-2.04 2.188 0 1.344.786 2.185 2.04 2.185 1.25 0 2.039-.84 2.039-2.185 0-1.348-.788-2.189-2.04-2.189zm0 .738c.691 0 1.134.562 1.134 1.45 0 .884-.443 1.444-1.134 1.444-.694 0-1.137-.56-1.137-1.444 0-.888.445-1.45 1.137-1.45zm-6.209-.666V19h1.615c1.268 0 2.015-.788 2.015-2.13s-.747-2.098-2.015-2.098zm.885.73h.624c.78 0 1.219.486 1.219 1.371 0 .914-.428 1.395-1.219 1.395h-.624zm11.764 2.03c-.1.944-.824 1.541-1.86 1.541-1.231 0-2.002-.823-2.002-2.188 0-1.363.777-2.186 2.001-2.186 1.017 0 1.79.645 1.858 1.591h-.862c-.082-.518-.48-.858-.996-.858-.668 0-1.098.56-1.098 1.45 0 .902.425 1.459 1.101 1.459.525 0 .903-.308.996-.809z" fill-rule="evenodd"/></symbol><use href="#04f3b07a-5b49-4c2e-bb9c-cccb78d49a1a"/></svg>