<?xml version="1.0" encoding="utf-8"?>
<!-- Generator: Adobe Illustrator 21.1.0, SVG Export Plug-In . SVG Version: 6.00 Build 0)  -->
<svg version="1.1" id="Layer_1" xmlns="http://www.w3.org/2000/svg" xmlns:xlink="http://www.w3.org/1999/xlink" x="0px" y="0px"
	 viewBox="0 0 197 197" style="enable-background:new 0 0 197 197;" xml:space="preserve">
<g transform="translate(0.000000,197.000000) scale(0.100000,-0.100000)">
	<path d="M864,1582.6c-182.9-38.9-329.4-148.3-416.5-310.2c-49.4-92.7-72.3-190.3-69.2-298.5c2.5-77.2,7.4-108.8,29.7-176.1
		C477.1,583.9,677.3,417,901,386.7c31.5-4.3,127.9-3.7,160.7,0.6c163.8,21.6,312.1,110.6,412.8,246.6
		c37.1,50.1,81.6,140.3,90.8,182.3c0.6,4.9,4.9,20.4,8.7,34c21,79.7,20.4,197.8-2.5,284.3c-58.1,224.3-229.3,392.4-454.2,445
		C1050.6,1595.5,930.7,1596.8,864,1582.6z"/>
</g>
</svg>
