<svg xmlns="http://www.w3.org/2000/svg" viewBox="0 0 24 24"><symbol id="d4637658-759c-4ba8-8a3e-c5669ad6da6e" viewBox="0 0 24 24"><path clip-rule="evenodd" d="M6 2h8l6 6v12a2 2 0 01-2 2H6a2 2 0 01-2-2V4a2 2 0 012-2zm7 1.5V9h5.5zM6.65 14.773V19h.885v-1.333h.79c.891 0 1.51-.58 1.51-1.447 0-.87-.598-1.447-1.465-1.447zm.885.7h.6c.507 0 .8.27.8.75 0 .483-.296.753-.803.753h-.597zm2.924-.7V19h1.614c1.269 0 2.016-.788 2.016-2.13s-.747-2.098-2.016-2.098zm.885.729h.624c.779 0 1.218.486 1.218 1.371 0 .914-.427 1.395-1.218 1.395h-.624zm4.3 1.834V19h-.884v-4.227h2.769v.729h-1.884v1.134h1.72v.7z" fill-rule="evenodd"/></symbol><use href="#d4637658-759c-4ba8-8a3e-c5669ad6da6e"/></svg>