<svg xmlns="http://www.w3.org/2000/svg" viewBox="0 0 24 24"><symbol id="81f825b5-5d1f-48a7-8d4c-ff9612207756" viewBox="0 0 24 24"><path clip-rule="evenodd" d="M6 2h8l6 6v12a2 2 0 01-2 2H6a2 2 0 01-2-2V4a2 2 0 012-2zm7 1.5V9h5.5zM6.738 14.773V19h.885v-1.333h.79c.891 0 1.51-.58 1.51-1.447 0-.87-.598-1.447-1.465-1.447zm.885.7h.6c.507 0 .8.27.8.75 0 .483-.296.753-.803.753h-.597zm2.924-.7V19h.885v-1.333h.79c.891 0 1.51-.58 1.51-1.447 0-.87-.598-1.447-1.465-1.447zm.885.7h.6c.507 0 .8.27.8.75 0 .483-.296.753-.803.753h-.597zm4.82.029V19h-.885v-3.498h-1.222v-.73h3.33v.73z" fill-rule="evenodd"/></symbol><use href="#81f825b5-5d1f-48a7-8d4c-ff9612207756"/></svg>