<svg xmlns="http://www.w3.org/2000/svg" viewBox="0 0 24 24"><symbol id="44a17a39-77d3-4568-a664-4c62e72868dc" viewBox="0 0 24 24"><path clip-rule="evenodd" d="M6 2h8l6 6v12a2 2 0 01-2 2H6a2 2 0 01-2-2V4a2 2 0 012-2zm7 1.5V9h5.5zM7.62 19h3.263v-.732H8.686v-.02l2.139-2.901v-.574H7.669v.729h2.098v.023L7.62 18.423zm4.86 0v-4.228h-.884V19zm.803 0v-4.228h1.72c.867 0 1.465.578 1.465 1.448 0 .867-.618 1.447-1.509 1.447h-.79V19zm1.486-3.527h-.6v1.503h.597c.507 0 .803-.27.803-.753 0-.48-.293-.75-.8-.75z" fill-rule="evenodd"/></symbol><use href="#44a17a39-77d3-4568-a664-4c62e72868dc"/></svg>